{"title":"Oprah.Winfrey.2011.05.10.Ultimate.Weight.Loss.Finale.720p.x264-N","uid":6382826,"size":1170639503,"categoryP":"video","categoryS":"hd___tv_shows","magnet":"?xt=urn:btih:aa733e35627cbbaa3abebf03fa14cde0d6d2e9ee&amp;dn=Oprah.Winfrey.2011.05.10.Ultimate.Weight.Loss.Finale.720p.x264-N&amp;tr=udp%3A%2F%2Ftracker.openbittorrent.com%3A80&amp;tr=udp%3A%2F%2Fopen.demonii.com%3A1337&amp;tr=udp%3A%2F%2Ftracker.coppersurfer.tk%3A6969&amp;tr=udp%3A%2F%2Fexodus.desync.com%3A6969","seeders":0,"leechers":1,"uploader":"DBaum23","files":2,"time":1305091453,"description":"Oprah.Winfrey.2011.05.10.Ultimate.Weight.Loss.Finale.720p.x264-Nile\n\nGeneral\nFormat : Matroska\nFile size : 1.09 GiB\nDuration : 42mn 56s\nOverall bit rate : 3 635 Kbps\nEncoded date : UTC 2011-05-10 23:17:10\n\nVideo\nID : 2\nFormat : AVC\nFormat/Info : Advanced Video Codec\nFormat profile : &lt;a class=&quot;__cf_email__&quot; href=&quot;/cdn-cgi/l/email-protection&quot; data-cfemail=&quot;6e260709062e225d405f&quot;&gt;[email&amp;#160;protected]&lt;/a&gt;&lt;script cf-hash='f9e31' type=&quot;text/javascript&quot;&gt;\n/* &lt;![CDATA[ */!function(){try{var t=&quot;currentScript&quot;in document?document.currentScript:function(){for(var t=document.getElementsByTagName(&quot;script&quot;),e=t.length;e--;)if(t[e].getAttribute(&quot;cf-hash&quot;))return t[e]}();if(t&amp;&amp;t.previousSibling){var e,r,n,i,c=t.previousSibling,a=c.getAttribute(&quot;data-cfemail&quot;);if(a){for(e=&quot;&quot;,r=parseInt(a.substr(0,2),16),n=2;a.length-n;n+=2)i=parseInt(a.substr(n,2),16)^r,e+=String.fromCharCode(i);e=document.createTextNode(e),c.parentNode.replaceChild(e,c)}}}catch(u){}}();/* ]]&gt; */&lt;/script&gt;\nFormat settings, CABAC : No\nFormat settings, ReFrames : 1 frame\nMuxing mode : Container profile=&lt;a class=&quot;__cf_email__&quot; href=&quot;/cdn-cgi/l/email-protection&quot; data-cfemail=&quot;481d262326273f26087b6679&quot;&gt;[email&amp;#160;protected]&lt;/a&gt;&lt;script cf-hash='f9e31' type=&quot;text/javascript&quot;&gt;\n/* &lt;![CDATA[ */!function(){try{var t=&quot;currentScript&quot;in document?document.currentScript:function(){for(var t=document.getElementsByTagName(&quot;script&quot;),e=t.length;e--;)if(t[e].getAttribute(&quot;cf-hash&quot;))return t[e]}();if(t&amp;&amp;t.previousSibling){var e,r,n,i,c=t.previousSibling,a=c.getAttribute(&quot;data-cfemail&quot;);if(a){for(e=&quot;&quot;,r=parseInt(a.substr(0,2),16),n=2;a.length-n;n+=2)i=parseInt(a.substr(n,2),16)^r,e+=String.fromCharCode(i);e=document.createTextNode(e),c.parentNode.replaceChild(e,c)}}}catch(u){}}();/* ]]&gt; */&lt;/script&gt;\nCodec ID : V_MPEG4/ISO/AVC\nDuration : 42mn 53s\nBit rate : 3 307 Kbps\nWidth : 1 280 pixels\nHeight : 720 pixels\nDisplay aspect ratio : 16:9\nFrame rate : 29.970 fps\nStandard : NTSC\nResolution : 24 bits\nColorimetry : 4:2:0\nScan type : Progressive\nBits/(Pixel*Frame) : 0.120\nStream size : 1 015 MiB (91%)\ncolour_primaries : BT.709-5, BT.1361, IEC 61966-2-4, SMPTE RP177\ntransfer_characteristics : BT.709-5, BT.1361\nmatrix_coefficients : BT.709-5, BT.1361, IEC 61966-2-4 709, SMPTE RP177\n\nAudio\nID : 1\nFormat : MPEG Audio\nFormat version : Version 1\nFormat profile : Layer 3\nCodec ID : A_MPEG/L3\nCodec ID/Hint : MP3\nDuration : 42mn 56s\nBit rate mode : Constant\nBit rate : 256 Kbps\nChannel(s) : 2 channels\nSampling rate : 48.0 KHz\nResolution : 16 bits\nStream size : 78.6 MiB (7%)\n &lt;a href=&quot;\nhttp://www.oprah.com/showinfo/Oprahs-Ultimate-Weight-Loss-Finale&quot; rel=&quot;nofollow&quot; target=&quot;_NEW&quot;&gt;\nhttp://www.oprah.com/showinfo/Oprahs-Ultimate-Weight-Loss-Finale&lt;/a&gt;","torrent":{"xt":"urn:btih:aa733e35627cbbaa3abebf03fa14cde0d6d2e9ee","amp;dn":"Oprah.Winfrey.2011.05.10.Ultimate.Weight.Loss.Finale.720p.x264-N","amp;tr":["udp%3A%2F%2Ftracker.openbittorrent.com%3A80","udp%3A%2F%2Fopen.demonii.com%3A1337","udp%3A%2F%2Ftracker.coppersurfer.tk%3A6969","udp%3A%2F%2Fexodus.desync.com%3A6969"],"infoHash":"aa733e35627cbbaa3abebf03fa14cde0d6d2e9ee","infoHashBuffer":{"type":"Buffer","data":[170,115,62,53,98,124,187,170,58,190,191,3,250,20,205,224,214,210,233,238]},"announce":[],"urlList":[]}}